<svg width="21" height="21" viewBox="0 0 21 21" fill="none" xmlns="http://www.w3.org/2000/svg">
<g clip-path="url(#clip0_50_596)">
<path fill-rule="evenodd" clip-rule="evenodd" d="M7.3429 11.9007L10.1729 13.9324L12.9009 11.9563L19.0159 18.291C18.8549 18.3456 18.6829 18.375 18.5039 18.375H1.8379C1.6179 18.375 1.4079 18.3298 1.2149 18.249L7.3429 11.9007ZM20.1709 6.6948V16.6247C20.1709 16.884 20.1169 17.1297 20.0209 17.3512L14.0269 11.1416L20.1709 6.6948ZM0.170899 6.75045L6.2129 11.089L0.276899 17.24C0.206595 17.0432 0.170686 16.8348 0.170899 16.6247V6.75045ZM18.5039 2.625C19.4239 2.625 20.1709 3.4083 20.1709 4.37535V4.99065L10.1689 12.2304L0.170899 5.0505V4.37535C0.170899 3.40935 0.916899 2.625 1.8379 2.625H18.5039Z" fill="white"/>
</g>
<defs>
<clipPath id="clip0_50_596">
<rect width="20" height="21" fill="white" transform="translate(0.170898)"/>
</clipPath>
</defs>
</svg>
