<svg width="26" height="25" viewBox="0 0 26 25" fill="none" xmlns="http://www.w3.org/2000/svg">
<path d="M23.0877 12.5C23.0872 9.73748 21.9895 7.08828 20.0361 5.13489C18.0828 3.18151 15.4336 2.08387 12.6711 2.08331V4.16665C14.3191 4.16702 15.93 4.65585 17.3003 5.57137C18.6706 6.4869 19.7389 7.78803 20.37 9.3104C20.7889 10.3216 21.0045 11.4054 21.0044 12.5H23.0877ZM2.25439 10.4166V5.20831C2.25439 4.93205 2.36414 4.66709 2.55949 4.47174C2.75484 4.27639 3.01979 4.16665 3.29606 4.16665H8.5044C8.78066 4.16665 9.04561 4.27639 9.24096 4.47174C9.43632 4.66709 9.54606 4.93205 9.54606 5.20831V9.37498C9.54606 9.65125 9.43632 9.9162 9.24096 10.1115C9.04561 10.3069 8.78066 10.4166 8.5044 10.4166H6.42106C6.42106 12.6268 7.29904 14.7464 8.86184 16.3092C10.4246 17.872 12.5443 18.75 14.7544 18.75V16.6666C14.7544 16.3904 14.8641 16.1254 15.0595 15.9301C15.2548 15.7347 15.5198 15.625 15.7961 15.625H19.9627C20.239 15.625 20.504 15.7347 20.6993 15.9301C20.8946 16.1254 21.0044 16.3904 21.0044 16.6666V21.875C21.0044 22.1512 20.8946 22.4162 20.6993 22.6116C20.504 22.8069 20.239 22.9166 19.9627 22.9166H14.7544C7.85127 22.9166 2.25439 17.3198 2.25439 10.4166Z" fill="white"/>
<path d="M18.4449 10.1083C18.7593 10.8665 18.9211 11.6792 18.9209 12.5H17.0459C17.046 11.9254 16.933 11.3565 16.7132 10.8256C16.4933 10.2947 16.1711 9.81239 15.7648 9.4061C15.3585 8.99982 14.8762 8.67756 14.3453 8.45775C13.8144 8.23793 13.2455 8.12486 12.6709 8.125V6.25C13.907 6.25007 15.1153 6.61666 16.1431 7.30344C17.1708 7.99021 17.9718 8.96632 18.4449 10.1083Z" fill="white"/>
</svg>
