<svg width="252" height="252" viewBox="0 0 252 252" fill="none" xmlns="http://www.w3.org/2000/svg">
<mask id="path-1-outside-1_96_45" maskUnits="userSpaceOnUse" x="0" y="0" width="252" height="252" fill="black">
<rect fill="white" width="252" height="252"/>
<path d="M232 126C232 184.542 184.542 232 126 232C67.4578 232 20 184.542 20 126C20 67.4578 67.4578 20 126 20C184.542 20 232 67.4578 232 126Z"/>
<path d="M159.39 184.836C154.592 184.583 150.869 183.596 148.22 181.875C145.365 180.074 143.895 177.66 143.809 174.635L143.597 169.671C146.86 169.071 149.679 167.218 152.056 164.112C152.699 163.233 153.039 162.461 153.074 161.795C153.122 160.884 152.691 160.405 151.78 160.357L151.623 160.349C151.586 160.382 151.515 160.396 151.41 160.39C148.686 165.409 144.575 167.774 139.076 167.483C136.275 167.335 133.908 166.595 131.976 165.264C130.08 163.934 128.388 161.72 126.901 158.621L126.586 158.604C125.641 158.554 125.146 158.932 125.104 159.738C125.074 160.298 125.251 160.94 125.634 161.662C126.911 164.083 128.565 166.015 130.596 167.457C132.183 168.664 133.882 169.421 135.692 169.728L134.747 179.636C132.573 180.891 130.298 181.754 127.92 182.225C125.575 182.734 122.249 182.874 117.941 182.646C113.668 182.421 109.895 181.378 106.622 179.519C102.598 177.234 100.684 174.253 100.878 170.575C101.12 165.987 102.629 154.704 105.405 136.727C106.884 127.356 108.02 120.813 108.813 117.097C112.591 114.065 117.999 112.735 125.039 113.107C130.152 113.377 134.34 114.547 137.602 116.616L139.981 126.436L137.734 134.062C137.566 134.58 137.469 135.084 137.443 135.574C137.378 136.8 138.046 137.468 139.445 137.577L145.532 117.088C147.008 116.393 148.917 115.826 151.258 115.388C153.601 114.915 156.139 114.75 158.87 114.895C163.984 115.165 167.72 116.24 170.079 118.121C172.475 119.969 173.792 122.954 174.031 127.076C174.095 127.852 174.185 129.139 174.301 130.936C176.041 158.495 176.783 174.709 176.525 179.578C172.421 183.47 166.71 185.223 159.39 184.836Z"/>
<path d="M117.938 119.99C114.278 108.543 112.403 83.1258 134.184 73.0349C141.069 68.8209 154.833 59.2424 154.812 54.6405C158.962 70.1504 162.281 102.838 142.359 109.507C136.471 112.846 125.361 119.404 123.293 121.557C123.104 122.056 122.993 122.261 122.961 122.118C122.934 121.999 123.052 121.808 123.293 121.557C124.999 117.065 133.104 88.725 147.918 75.7142C140.748 80.1591 125.067 94.5569 119.701 116.59L117.938 119.99Z"/>
<path d="M115.564 125.277C104.899 130.815 80.1651 136.948 66.5478 117.177C61.2339 111.1 49.4731 99.1463 44.9412 99.9431C59.5279 93.2374 91.1842 84.4547 101.116 102.969C105.399 108.211 113.736 118.058 116.207 119.733C116.73 119.836 116.951 119.91 116.815 119.966C116.702 120.013 116.494 119.928 116.207 119.733C111.492 118.809 82.1938 115.597 66.8733 103.187C72.4627 109.505 89.2965 122.536 111.916 124.111L115.564 125.277Z"/>
</mask>
<path d="M232 126C232 184.542 184.542 232 126 232C67.4578 232 20 184.542 20 126C20 67.4578 67.4578 20 126 20C184.542 20 232 67.4578 232 126Z" fill="#FFF6E2"/>
<path d="M159.39 184.836C154.592 184.583 150.869 183.596 148.22 181.875C145.365 180.074 143.895 177.66 143.809 174.635L143.597 169.671C146.86 169.071 149.679 167.218 152.056 164.112C152.699 163.233 153.039 162.461 153.074 161.795C153.122 160.884 152.691 160.405 151.78 160.357L151.623 160.349C151.586 160.382 151.515 160.396 151.41 160.39C148.686 165.409 144.575 167.774 139.076 167.483C136.275 167.335 133.908 166.595 131.976 165.264C130.08 163.934 128.388 161.72 126.901 158.621L126.586 158.604C125.641 158.554 125.146 158.932 125.104 159.738C125.074 160.298 125.251 160.94 125.634 161.662C126.911 164.083 128.565 166.015 130.596 167.457C132.183 168.664 133.882 169.421 135.692 169.728L134.747 179.636C132.573 180.891 130.298 181.754 127.92 182.225C125.575 182.734 122.249 182.874 117.941 182.646C113.668 182.421 109.895 181.378 106.622 179.519C102.598 177.234 100.684 174.253 100.878 170.575C101.12 165.987 102.629 154.704 105.405 136.727C106.884 127.356 108.02 120.813 108.813 117.097C112.591 114.065 117.999 112.735 125.039 113.107C130.152 113.377 134.34 114.547 137.602 116.616L139.981 126.436L137.734 134.062C137.566 134.58 137.469 135.084 137.443 135.574C137.378 136.8 138.046 137.468 139.445 137.577L145.532 117.088C147.008 116.393 148.917 115.826 151.258 115.388C153.601 114.915 156.139 114.75 158.87 114.895C163.984 115.165 167.72 116.24 170.079 118.121C172.475 119.969 173.792 122.954 174.031 127.076C174.095 127.852 174.185 129.139 174.301 130.936C176.041 158.495 176.783 174.709 176.525 179.578C172.421 183.47 166.71 185.223 159.39 184.836Z" fill="#F3C049"/>
<path d="M117.938 119.99C114.278 108.543 112.403 83.1258 134.184 73.0349C141.069 68.8209 154.833 59.2424 154.812 54.6405C158.962 70.1504 162.281 102.838 142.359 109.507C136.471 112.846 125.361 119.404 123.293 121.557C123.104 122.056 122.993 122.261 122.961 122.118C122.934 121.999 123.052 121.808 123.293 121.557C124.999 117.065 133.104 88.725 147.918 75.7142C140.748 80.1591 125.067 94.5569 119.701 116.59L117.938 119.99Z" fill="#AACA69"/>
<path d="M115.564 125.277C104.899 130.815 80.1651 136.948 66.5478 117.177C61.2339 111.1 49.4731 99.1463 44.9412 99.9431C59.5279 93.2374 91.1842 84.4547 101.116 102.969C105.399 108.211 113.736 118.058 116.207 119.733C116.73 119.836 116.951 119.91 116.815 119.966C116.702 120.013 116.494 119.928 116.207 119.733C111.492 118.809 82.1938 115.597 66.8733 103.187C72.4627 109.505 89.2965 122.536 111.916 124.111L115.564 125.277Z" fill="#AACA69"/>
<path d="M159.39 184.836L158.335 204.809L159.39 184.836ZM148.22 181.875L159.115 165.104L159.005 165.032L158.894 164.962L148.22 181.875ZM143.809 174.635L163.801 174.067L163.797 173.924L163.79 173.782L143.809 174.635ZM143.597 169.671L139.978 150.002L122.873 153.149L123.615 170.524L143.597 169.671ZM152.056 164.112L167.939 176.266L168.069 176.097L168.195 175.924L152.056 164.112ZM153.074 161.795L133.102 160.74L153.074 161.795ZM151.78 160.357L150.725 180.329L150.725 180.329L151.78 160.357ZM151.623 160.349L152.678 140.376L144.405 139.939L138.245 145.481L151.623 160.349ZM151.41 160.39L152.465 140.418L139.854 139.751L133.831 150.851L151.41 160.39ZM139.076 167.483L138.021 187.455L139.076 167.483ZM131.976 165.264L120.496 181.641L120.561 181.686L120.626 181.731L131.976 165.264ZM126.901 158.621L144.933 149.97L139.802 139.275L127.957 138.649L126.901 158.621ZM126.586 158.604L127.642 138.632L127.641 138.632L126.586 158.604ZM125.104 159.738L105.132 158.683L125.104 159.738ZM125.634 161.662L143.324 152.331L143.314 152.312L143.304 152.292L125.634 161.662ZM130.596 167.457L142.709 151.542L142.445 151.341L142.175 151.149L130.596 167.457ZM135.692 169.728L155.601 171.627L157.367 153.112L139.03 150.008L135.692 169.728ZM134.747 179.636L144.748 196.956L153.678 191.799L154.657 181.534L134.747 179.636ZM127.92 182.225L124.03 162.607L123.856 162.642L123.682 162.679L127.92 182.225ZM117.941 182.646L118.996 162.674L117.941 182.646ZM106.622 179.519L96.7452 196.911L96.7452 196.911L106.622 179.519ZM100.878 170.575L80.9057 169.52L100.878 170.575ZM105.405 136.727L85.6497 133.61L85.6446 133.642L85.6396 133.675L105.405 136.727ZM108.813 117.097L96.2945 101.499L90.7405 105.957L89.2537 112.921L108.813 117.097ZM125.039 113.107L126.094 93.1349L126.094 93.1349L125.039 113.107ZM137.602 116.616L157.04 111.907L155.138 104.054L148.314 99.7265L137.602 116.616ZM139.981 126.436L159.165 132.088L160.681 126.942L159.418 121.727L139.981 126.436ZM137.734 134.062L156.76 140.227L156.843 139.971L156.919 139.714L137.734 134.062ZM137.443 135.574L157.415 136.63L137.443 135.574ZM139.445 137.577L137.891 157.516L154.012 158.773L158.617 143.273L139.445 137.577ZM145.532 117.088L137.018 98.9904L128.911 102.804L126.36 111.392L145.532 117.088ZM151.258 115.388L154.939 135.047L155.079 135.02L155.219 134.992L151.258 115.388ZM158.87 114.895L159.926 94.9225L158.87 114.895ZM170.079 118.121L157.611 133.759L157.737 133.86L157.865 133.959L170.079 118.121ZM174.031 127.076L154.064 128.233L154.079 128.481L154.099 128.729L174.031 127.076ZM174.301 130.936L194.261 129.676L194.261 129.663L194.26 129.651L174.301 130.936ZM176.525 179.578L190.289 194.088L196.077 188.599L196.498 180.633L176.525 179.578ZM117.938 119.99L98.888 126.081L113.54 171.902L135.691 129.199L117.938 119.99ZM134.184 73.0349L142.591 91.1821L143.64 90.6964L144.625 90.0932L134.184 73.0349ZM154.812 54.6405L174.132 49.471L134.812 54.7329L154.812 54.6405ZM142.359 109.507L136.01 90.5418L134.177 91.1556L132.495 92.1092L142.359 109.507ZM122.961 122.118L142.477 117.744L122.961 122.118ZM147.918 75.7142L161.116 90.7415L137.38 58.7157L147.918 75.7142ZM119.701 116.59L137.455 125.799L138.564 123.662L139.133 121.322L119.701 116.59ZM115.564 125.277L124.781 143.026L167.466 120.861L121.65 106.225L115.564 125.277ZM66.5478 117.177L83.0191 105.832L82.3637 104.881L81.6031 104.011L66.5478 117.177ZM44.9412 99.9431L36.5874 81.7713L48.4042 119.641L44.9412 99.9431ZM101.116 102.969L83.4918 112.424L84.4056 114.127L85.6288 115.624L101.116 102.969ZM116.815 119.966L109.212 101.468L116.815 119.966ZM66.8733 103.187L79.4622 87.6457L51.8932 116.438L66.8733 103.187ZM111.916 124.111L118.002 105.06L115.708 104.327L113.306 104.16L111.916 124.111ZM212 126C212 173.496 173.496 212 126 212V252C195.588 252 252 195.588 252 126H212ZM126 212C78.5035 212 40 173.496 40 126H0C0 195.588 56.4121 252 126 252V212ZM40 126C40 78.5035 78.5035 40 126 40V0C56.4121 0 0 56.4121 0 126H40ZM126 40C173.496 40 212 78.5035 212 126H252C252 56.4121 195.588 0 126 0V40ZM160.445 164.864C159.099 164.793 158.375 164.641 158.124 164.574C157.876 164.508 158.323 164.589 159.115 165.104L137.325 198.647C144.063 203.025 151.714 204.459 158.335 204.809L160.445 164.864ZM158.894 164.962C159.572 165.39 160.903 166.416 162.056 168.308C163.258 170.282 163.752 172.357 163.801 174.067L123.817 175.204C124.116 185.744 129.82 193.913 137.546 198.789L158.894 164.962ZM163.79 173.782L163.579 168.818L123.615 170.524L123.827 175.488L163.79 173.782ZM147.216 189.341C156.209 187.686 163.119 182.565 167.939 176.266L136.173 151.958C136.137 152.005 136.435 151.604 137.175 151.118C137.959 150.602 138.936 150.193 139.978 150.002L147.216 189.341ZM168.195 175.924C169.816 173.709 172.713 169.148 173.046 162.85L133.102 160.74C133.24 158.116 133.928 156.09 134.482 154.829C135.038 153.564 135.614 152.713 135.917 152.3L168.195 175.924ZM173.046 162.85C173.233 159.317 172.67 152.951 167.656 147.377C162.641 141.803 156.37 140.571 152.835 140.385L150.725 180.329C148.101 180.19 142.5 179.223 137.917 174.128C133.335 169.034 132.963 163.363 133.102 160.74L173.046 162.85ZM152.836 140.385L152.678 140.376L150.567 180.321L150.725 180.329L152.836 140.385ZM138.245 145.481C141.883 142.207 145.729 141.14 147.722 140.752C149.838 140.34 151.554 140.37 152.465 140.418L150.354 180.362C151.37 180.416 153.175 180.441 155.361 180.016C157.426 179.614 161.325 178.523 165 175.216L138.245 145.481ZM133.831 150.851C133.872 150.776 134.559 149.599 136.313 148.591C138.112 147.555 139.663 147.486 140.132 147.511L138.021 187.455C143.989 187.771 150.344 186.664 156.255 183.265C162.12 179.892 166.224 175.024 168.988 169.929L133.831 150.851ZM140.132 147.511C140.291 147.519 141.667 147.653 143.327 148.797L120.626 181.731C126.149 185.538 132.258 187.151 138.021 187.455L140.132 147.511ZM143.457 148.887C144.489 149.611 145.024 150.262 145.178 150.464C145.329 150.662 145.216 150.559 144.933 149.97L108.869 167.272C111.174 172.076 114.751 177.613 120.496 181.641L143.457 148.887ZM127.957 138.649L127.642 138.632L125.53 178.576L125.846 178.593L127.957 138.649ZM127.641 138.632C124.803 138.482 118.92 138.709 113.358 142.963C107.155 147.706 105.364 154.289 105.132 158.683L145.076 160.793C144.887 164.38 143.364 170.372 137.655 174.737C132.587 178.613 127.424 178.676 125.531 178.576L127.641 138.632ZM105.132 158.683C104.843 164.153 106.614 168.484 107.965 171.032L143.304 152.292C143.889 153.395 145.306 156.443 145.076 160.793L105.132 158.683ZM107.945 170.993C110.537 175.908 114.186 180.334 119.018 183.764L142.175 151.149C142.522 151.395 142.808 151.666 143.024 151.917C143.234 152.163 143.321 152.326 143.324 152.331L107.945 170.993ZM118.483 183.371C122.417 186.365 127.084 188.555 132.354 189.447L139.03 150.008C140.679 150.288 141.949 150.963 142.709 151.542L118.483 183.371ZM115.782 167.829L114.837 177.737L154.657 181.534L155.601 171.627L115.782 167.829ZM124.746 162.315C124.402 162.514 124.183 162.577 124.03 162.607L131.809 201.843C136.412 200.931 140.744 199.267 144.748 196.956L124.746 162.315ZM123.682 162.679C123.962 162.619 123.747 162.691 122.823 162.73C121.945 162.767 120.691 162.764 118.996 162.674L116.885 202.618C121.797 202.878 127.214 202.843 132.157 201.771L123.682 162.679ZM118.996 162.674C117.398 162.59 116.723 162.256 116.498 162.128L96.7452 196.911C103.067 200.501 109.938 202.251 116.885 202.618L118.996 162.674ZM116.498 162.128C116.51 162.135 116.813 162.307 117.27 162.712C117.736 163.126 118.375 163.794 118.997 164.762C120.398 166.944 120.965 169.459 120.85 171.63L80.9057 169.52C80.2025 182.831 88.1524 192.031 96.7452 196.911L116.498 162.128ZM120.85 171.63C121.027 168.271 122.339 158.121 125.171 139.779L85.6396 133.675C82.92 151.287 81.213 163.702 80.9057 169.52L120.85 171.63ZM125.161 139.844C126.642 130.459 127.704 124.401 128.372 121.272L89.2537 112.921C88.335 117.225 87.1259 124.254 85.6497 133.61L125.161 139.844ZM121.331 132.694C120.632 133.256 120.18 133.32 120.478 133.247C120.849 133.156 121.929 132.971 123.983 133.079L126.094 93.1349C116.344 92.6197 105.331 94.2463 96.2945 101.499L121.331 132.694ZM123.983 133.079C126.746 133.225 127.322 133.779 126.89 133.505L148.314 99.7265C141.358 95.3145 133.558 93.5293 126.094 93.1349L123.983 133.079ZM118.164 121.324L120.543 131.144L159.418 121.727L157.04 111.907L118.164 121.324ZM120.796 120.784L118.549 128.41L156.919 139.714L159.165 132.088L120.796 120.784ZM118.708 127.897C118.061 129.892 117.598 132.115 117.471 134.519L157.415 136.63C157.34 138.053 157.071 139.267 156.76 140.227L118.708 127.897ZM117.471 134.519C117.235 138.989 118.287 145.668 123.749 151.133C128.763 156.149 134.682 157.266 137.891 157.516L140.999 117.637C142.809 117.778 147.695 118.508 152.041 122.856C156.836 127.654 157.587 133.386 157.415 136.63L117.471 134.519ZM158.617 143.273L164.704 122.783L126.36 111.392L120.273 131.881L158.617 143.273ZM154.046 135.185C153.699 135.348 153.572 135.371 153.761 135.315C153.941 135.262 154.319 135.163 154.939 135.047L147.578 95.7296C144.257 96.3514 140.56 97.3238 137.018 98.9904L154.046 135.185ZM155.219 134.992C155.695 134.896 156.527 134.799 157.815 134.867L159.926 94.9225C155.75 94.7019 151.508 94.9336 147.298 95.7841L155.219 134.992ZM157.815 134.867C158.531 134.905 159.065 134.964 159.44 135.021C159.818 135.078 159.983 135.126 159.975 135.123C159.968 135.121 159.727 135.052 159.323 134.857C158.915 134.658 158.308 134.315 157.611 133.759L182.547 102.483C175.354 96.7482 166.595 95.2749 159.926 94.9225L157.815 134.867ZM157.865 133.959C156.214 132.685 155.148 131.137 154.567 129.821C154.041 128.631 154.048 127.952 154.064 128.233L193.998 125.919C193.552 118.223 190.781 108.83 182.292 102.284L157.865 133.959ZM154.099 128.729C154.147 129.305 154.227 130.431 154.343 132.222L194.26 129.651C194.144 127.847 194.044 126.399 193.963 125.423L154.099 128.729ZM154.341 132.197C156.124 160.444 156.733 175.129 156.553 178.523L196.498 180.633C196.833 174.289 195.958 156.547 194.261 129.676L154.341 132.197ZM162.762 165.067C162.885 164.95 163.032 164.841 163.175 164.759C163.314 164.679 163.372 164.669 163.296 164.692C163.123 164.745 162.278 164.961 160.445 164.864L158.335 204.809C169.428 205.395 181.114 202.791 190.289 194.088L162.762 165.067ZM136.988 113.898C135.947 110.644 135.14 104.92 136.137 99.8992C136.985 95.6324 138.752 92.9609 142.591 91.1821L125.777 54.8877C107.835 63.1998 99.6489 78.2821 96.9033 92.1082C94.3076 105.18 96.2684 117.888 98.888 126.081L136.988 113.898ZM144.625 90.0932C148.562 87.6835 154.512 83.7247 159.708 79.4989C162.251 77.4304 165.195 74.8312 167.685 71.9557C168.929 70.5196 170.462 68.5568 171.77 66.1602C172.963 63.9731 174.836 59.8686 174.812 54.5481L134.812 54.7329C134.793 50.563 136.24 47.7644 136.658 46.9984C137.191 46.0229 137.598 45.5963 137.447 45.7712C137.147 46.1177 136.224 47.0393 134.468 48.4674C131.065 51.2349 126.691 54.1724 123.743 55.9767L144.625 90.0932ZM135.492 59.8101C137.162 66.0516 138.531 75.5401 137.721 83.314C137.321 87.1449 136.509 89.3636 135.928 90.379C135.686 90.8034 135.581 90.8476 135.706 90.7393C135.864 90.6035 136.02 90.5383 136.01 90.5418L148.709 128.473C170.225 121.269 176.126 100.683 177.505 87.464C178.977 73.3494 176.612 58.7394 174.132 49.471L135.492 59.8101ZM132.495 92.1092C129.407 93.86 124.935 96.4624 120.896 98.9532C118.89 100.19 116.838 101.493 115.06 102.704C113.846 103.53 111.046 105.436 108.867 107.705L137.719 135.41C136.895 136.268 136.318 136.671 136.603 136.453C136.728 136.358 137.033 136.134 137.572 135.767C138.644 135.038 140.125 134.089 141.891 133C145.396 130.839 149.424 128.493 152.224 126.905L132.495 92.1092ZM108.867 107.705C108.286 108.31 107.035 109.663 105.869 111.611C105.209 112.712 101.671 118.577 103.445 126.492L142.477 117.744C143.41 121.908 142.803 125.404 142.191 127.534C141.577 129.673 140.728 131.255 140.185 132.163C139.131 133.923 138.06 135.055 137.719 135.41L108.867 107.705ZM103.445 126.492C103.64 127.361 104.559 131.626 108.175 135.606C110.317 137.963 113.703 140.526 118.415 141.633C123.119 142.737 127.274 141.951 130.21 140.816C135.177 138.896 137.897 135.543 138.46 134.859C139.453 133.656 140.091 132.593 140.383 132.088C141.359 130.4 141.946 128.774 141.99 128.657L104.596 114.457C104.606 114.431 104.677 114.244 104.795 113.968C104.866 113.804 105.196 113.033 105.753 112.069C106.017 111.612 106.63 110.586 107.6 109.411C108.141 108.755 110.84 105.419 115.789 103.506C118.716 102.375 122.863 101.589 127.559 102.692C132.264 103.796 135.643 106.355 137.778 108.705C141.382 112.67 142.29 116.911 142.477 117.744L103.445 126.492ZM141.99 128.657C143.649 124.29 145.062 118.801 148.988 109.903C152.81 101.241 157.113 94.2571 161.116 90.7415L134.72 60.687C123.909 70.1821 116.752 83.8734 112.392 93.7571C110.072 99.0145 108.249 103.896 106.915 107.679C106.248 109.572 105.694 111.216 105.277 112.455C105.061 113.096 104.901 113.573 104.767 113.965C104.621 114.392 104.578 114.503 104.596 114.457L141.99 128.657ZM137.38 58.7157C126.882 65.2239 107.159 83.5669 100.269 111.858L139.133 121.322C142.975 105.547 154.614 95.0942 158.456 92.7127L137.38 58.7157ZM101.948 107.38L100.184 110.78L135.691 129.199L137.455 125.799L101.948 107.38ZM106.348 107.527C103.316 109.101 97.812 110.861 92.6964 110.725C88.3504 110.609 85.4199 109.318 83.0191 105.832L50.0766 128.521C61.293 144.807 77.5383 150.335 91.63 150.711C104.952 151.066 117.148 146.99 124.781 143.026L106.348 107.527ZM81.6031 104.011C78.5645 100.536 73.6597 95.3381 68.6191 90.9289C66.1517 88.7706 63.0935 86.3061 59.8396 84.3362C58.2146 83.3524 56.0214 82.1719 53.4384 81.2864C51.0815 80.4784 46.7192 79.3237 41.4782 80.2452L48.4042 119.641C44.2961 120.363 41.2928 119.408 40.4671 119.125C39.4155 118.764 38.9262 118.434 39.1241 118.554C39.516 118.791 40.5799 119.546 42.2834 121.036C45.5846 123.924 49.2172 127.741 51.4925 130.343L81.6031 104.011ZM53.295 118.115C59.1646 115.417 68.2847 112.467 76.0822 111.956C79.9246 111.704 82.2475 112.131 83.3452 112.531C83.804 112.699 83.865 112.794 83.7371 112.689C83.5768 112.557 83.4863 112.413 83.4918 112.424L118.74 93.515C108.014 73.5197 86.7296 71.1721 73.4662 72.0414C59.3059 72.9695 45.3044 77.7639 36.5874 81.7713L53.295 118.115ZM85.6288 115.624C87.875 118.373 91.1937 122.342 94.3294 125.904C95.8871 127.674 97.5171 129.476 99.0096 131.025C100.029 132.082 102.379 134.522 104.983 136.287L127.431 103.18C128.415 103.847 128.91 104.349 128.647 104.104C128.533 103.997 128.261 103.733 127.808 103.264C126.909 102.331 125.723 101.03 124.353 99.4731C121.631 96.382 118.64 92.8071 116.603 90.3144L85.6288 115.624ZM104.983 136.287C105.677 136.758 107.222 137.763 109.338 138.584C110.534 139.049 116.914 141.549 124.418 138.465L109.212 101.468C113.16 99.8452 116.71 99.8543 118.913 100.098C121.125 100.343 122.828 100.913 123.815 101.296C125.727 102.038 127.024 102.904 127.431 103.18L104.983 136.287ZM124.418 138.465C125.242 138.126 129.291 136.501 132.604 132.265C134.566 129.756 136.521 125.987 136.817 121.157C137.113 116.335 135.638 112.373 134.025 109.671C131.296 105.098 127.533 102.983 126.764 102.542C125.41 101.766 124.254 101.316 123.707 101.114C121.879 100.436 120.176 100.131 120.054 100.107L112.359 139.36C112.331 139.354 112.135 139.316 111.843 139.245C111.669 139.203 110.853 139.008 109.809 138.621C109.314 138.438 108.2 138.006 106.877 137.248C106.139 136.825 102.397 134.727 99.6774 130.171C98.0693 127.477 96.5967 123.523 96.8919 118.709C97.1876 113.887 99.1393 110.125 101.095 107.624C104.396 103.403 108.423 101.792 109.212 101.468L124.418 138.465ZM120.054 100.107C115.47 99.2083 109.822 98.7401 100.391 96.3703C91.2101 94.0633 83.6017 90.999 79.4622 87.6457L54.2843 118.727C65.4654 127.785 80.1662 132.532 90.6429 135.164C96.2157 136.565 101.334 137.539 105.287 138.216C107.266 138.555 108.98 138.824 110.271 139.026C110.939 139.13 111.436 139.208 111.846 139.274C112.29 139.346 112.408 139.369 112.359 139.36L120.054 100.107ZM51.8932 116.438C60.0769 125.689 81.4808 142.04 110.527 144.063L113.306 104.16C97.1122 103.032 84.8484 93.3211 81.8533 89.9353L51.8932 116.438ZM105.83 143.163L109.478 144.328L121.65 106.225L118.002 105.06L105.83 143.163Z" fill="#F3C049" mask="url(#path-1-outside-1_96_45)"/>
</svg>
